<?xml version="1.0" encoding="UTF-8" standalone="no"?>
<!-- Created with Inkscape (http://www.inkscape.org/) -->

<svg
   width="24.467407mm"
   height="19.492416mm"
   viewBox="0 0 24.467407 19.492416"
   version="1.1"
   id="svg5"
   xml:space="preserve"
   sodipodi:docname="Cloud-logo.svg"
   inkscape:export-filename="Cloud-logo.svg"
   inkscape:export-xdpi="96"
   inkscape:export-ydpi="96"
   xmlns:inkscape="http://www.inkscape.org/namespaces/inkscape"
   xmlns:sodipodi="http://sodipodi.sourceforge.net/DTD/sodipodi-0.dtd"
   xmlns:xlink="http://www.w3.org/1999/xlink"
   xmlns="http://www.w3.org/2000/svg"
   xmlns:svg="http://www.w3.org/2000/svg"><sodipodi:namedview
     id="namedview7"
     pagecolor="#ffffff"
     bordercolor="#000000"
     borderopacity="0.25"
     inkscape:showpageshadow="2"
     inkscape:pageopacity="0.0"
     inkscape:pagecheckerboard="0"
     inkscape:deskcolor="#d1d1d1"
     inkscape:document-units="mm"
     showgrid="false" /><defs
     id="defs2"><linearGradient
       inkscape:collect="always"
       id="linearGradient17784"><stop
         style="stop-color:#f57d1c;stop-opacity:1;"
         offset="0"
         id="stop17782" /><stop
         style="stop-color:#f0b333;stop-opacity:1;"
         offset="1"
         id="stop17780" /></linearGradient><linearGradient
       inkscape:collect="always"
       id="linearGradient16189"><stop
         style="stop-color:#f57e1c;stop-opacity:1;"
         offset="0"
         id="stop16185" /><stop
         style="stop-color:#f0b333;stop-opacity:0.81568629;"
         offset="0.52860075"
         id="stop16187" /></linearGradient><linearGradient
       inkscape:collect="always"
       id="linearGradient9070"><stop
         style="stop-color:#f57d1c;stop-opacity:1;"
         offset="0"
         id="stop9066" /><stop
         style="stop-color:#f0b333;stop-opacity:1;"
         offset="0.44785315"
         id="stop9068" /></linearGradient><linearGradient
       inkscape:collect="always"
       xlink:href="#linearGradient9070"
       id="linearGradient9072"
       x1="124.10888"
       y1="164.49156"
       x2="164.87158"
       y2="164.49156"
       gradientUnits="userSpaceOnUse" /><linearGradient
       inkscape:collect="always"
       xlink:href="#linearGradient16189"
       id="linearGradient16191"
       x1="122.27775"
       y1="143.70715"
       x2="166.12657"
       y2="143.70715"
       gradientUnits="userSpaceOnUse" /><linearGradient
       inkscape:collect="always"
       xlink:href="#linearGradient17784"
       id="linearGradient17786"
       x1="120.59244"
       y1="164.60852"
       x2="133.8848"
       y2="164.60852"
       gradientUnits="userSpaceOnUse" /></defs><g
     inkscape:label="Capa 1"
     inkscape:groupmode="layer"
     id="layer1"
     transform="translate(-141.98429,-77.183218)"><g
       id="g10377"
       inkscape:label="Cloud-logo"
       transform="matrix(0.55799451,0,0,0.55799451,73.753973,2.5232752)"
       inkscape:export-filename="Cloud-logo-colored.svg"
       inkscape:export-xdpi="96"
       inkscape:export-ydpi="96"><path
         id="path10112"
         style="fill:none;stroke:url(#linearGradient16191);stroke-width:1.72;stroke-linecap:round;stroke-dasharray:none"
         d="m 149.50571,147.77632 c 0.42177,-0.46834 0.86406,-0.90708 1.32774,-1.30786 m -3e-5,-1e-5 c 1.41382,-1.22203 3.09072,-2.02529 5.19985,-2.02529 4.69899,0 8.8857,3.42057 9.2333,8.06864 m -42.12882,0.24202 c 0.13609,-5.42576 4.57715,-9.78238 10.03569,-9.78238 2.89206,0 5.62829,1.77379 8.05028,4.02956 m -7.55115,-4.10159 c 1.24316,-4.85039 5.58283,-8.23892 10.55155,-8.23892 4.44713,0 8.44816,2.72439 10.10932,6.88367"
         inkscape:label="Top-cloud"
         sodipodi:nodetypes="cccsccsccsc" /><path
         d="m 131.94719,172.07765 -1.79176,-4.6044 h -5.89614 l -1.77092,4.6044 h -1.89593 l 5.8128,-14.93826 h 1.68758 l 5.79197,14.93826 z m -4.02104,-10.77138 q -0.0625,-0.16668 -0.20835,-0.6042 -0.14584,-0.43752 -0.29168,-0.89588 -0.12501,-0.47919 -0.20834,-0.7292 -0.14584,0.64586 -0.33335,1.27089 -0.18751,0.6042 -0.31252,0.95839 l -1.68759,4.50023 h 4.70858 z"
         id="path10283"
         style="font-size:20.8344px;font-family:'Noto Sans Adlam Unjoined';-inkscape-font-specification:'Noto Sans Adlam Unjoined';letter-spacing:0.148167px;opacity:0.999012;fill:url(#linearGradient17786);fill-opacity:1;stroke-width:2.4"
         transform="scale(1.0638027,0.94002397)"
         inkscape:label="Letter-a" /><path
         d="m 142.63756,172.07765 -4.89609,-13.04233 h -0.0833 q 0.0625,0.64586 0.10417,1.75009 0.0417,1.08339 0.0417,2.27095 v 9.02129 h -1.72926 v -14.87576 h 2.77098 l 4.58356,12.18812 h 0.0833 l 4.66691,-12.18812 h 2.75014 v 14.87576 h -1.85426 v -9.1463 q 0,-1.08339 0.0417,-2.14594 0.0625,-1.06256 0.10417,-1.72926 h -0.0833 l -4.95859,13.0215 z"
         id="path10285"
         style="font-size:20.8344px;font-family:'Noto Sans Adlam Unjoined';-inkscape-font-specification:'Noto Sans Adlam Unjoined';letter-spacing:0.148167px;opacity:0.999012;fill:#f0b333;fill-opacity:1;stroke-width:2.4"
         transform="scale(1.0638027,0.94002397)"
         inkscape:label="Letter-m" /><path
         id="path10369"
         style="display:inline;opacity:0.999012;fill:none;stroke:url(#linearGradient9072);stroke-width:1.82081;stroke-linecap:round;stroke-dasharray:none"
         d="m 140.1729,165.75929 c -1.25988,0.48106 -2.59943,0.82019 -3.96865,1.00471 -4.8803,0.65769 -9.23479,-1.22466 -11.18497,-4.25309 m 38.9419,0.49283 c -2.40099,2.68212 -5.91522,4.81933 -10.36162,4.81933 -5.76263,0 -10.84361,-2.70785 -12.50242,-6.66302"
         inkscape:label="Cloud-bottom"
         sodipodi:nodetypes="csccsc" /></g></g></svg>
